<svg xmlns="http://www.w3.org/2000/svg" width="158" height="344" viewBox="0 0 158 344"><defs><style>.a{fill:#ff8900;fill-rule:evenodd;}</style></defs><g transform="translate(-791 980)"><g transform="translate(791 -980)"><path class="a" d="M1394.5,776.831a4.349,4.349,0,1,1,4.5-4.347A4.423,4.423,0,0,1,1394.5,776.831Zm0-30.428a4.349,4.349,0,1,1,4.5-4.347A4.423,4.423,0,0,1,1394.5,746.4Zm0-30.428a4.349,4.349,0,1,1,4.5-4.347A4.423,4.423,0,0,1,1394.5,715.976Zm0-30.427a4.349,4.349,0,1,1,4.5-4.347A4.423,4.423,0,0,1,1394.5,685.549Zm0-30.427a4.349,4.349,0,1,1,4.5-4.347A4.423,4.423,0,0,1,1394.5,655.121Zm0-30.427a4.349,4.349,0,1,1,4.5-4.347A4.423,4.423,0,0,1,1394.5,624.694Zm-29.545,152.138a4.349,4.349,0,1,1,4.5-4.347A4.423,4.423,0,0,1,1364.959,776.831Zm0-30.428a4.349,4.349,0,1,1,4.5-4.347A4.423,4.423,0,0,1,1364.959,746.4Zm0-30.428a4.349,4.349,0,1,1,4.5-4.347A4.423,4.423,0,0,1,1364.959,715.976Zm0-30.427a4.349,4.349,0,1,1,4.5-4.347A4.423,4.423,0,0,1,1364.959,685.549Zm0-30.427a4.349,4.349,0,1,1,4.5-4.347A4.423,4.423,0,0,1,1364.959,655.121Zm0-30.427a4.349,4.349,0,1,1,4.5-4.347A4.423,4.423,0,0,1,1364.959,624.694Zm-29.545,152.138a4.349,4.349,0,1,1,4.5-4.347A4.423,4.423,0,0,1,1335.415,776.831Zm0-30.428a4.349,4.349,0,1,1,4.5-4.347A4.423,4.423,0,0,1,1335.415,746.4Zm0-30.428a4.349,4.349,0,1,1,4.5-4.347A4.423,4.423,0,0,1,1335.415,715.976Zm0-30.427a4.349,4.349,0,1,1,4.5-4.347A4.423,4.423,0,0,1,1335.415,685.549Zm0-30.427a4.349,4.349,0,1,1,4.5-4.347A4.423,4.423,0,0,1,1335.415,655.121Zm0-30.427a4.349,4.349,0,1,1,4.5-4.347A4.423,4.423,0,0,1,1335.415,624.694Zm-30.829,152.138a4.349,4.349,0,1,1,4.5-4.347A4.423,4.423,0,0,1,1304.585,776.831Zm0-30.428a4.349,4.349,0,1,1,4.5-4.347A4.423,4.423,0,0,1,1304.585,746.4Zm0-30.428a4.349,4.349,0,1,1,4.5-4.347A4.423,4.423,0,0,1,1304.585,715.976Zm0-30.427a4.349,4.349,0,1,1,4.5-4.347A4.423,4.423,0,0,1,1304.585,685.549Zm0-30.427a4.349,4.349,0,1,1,4.5-4.347A4.423,4.423,0,0,1,1304.585,655.121Zm0-30.427a4.349,4.349,0,1,1,4.5-4.347A4.423,4.423,0,0,1,1304.585,624.694Zm-29.545,152.138a4.349,4.349,0,1,1,4.5-4.347A4.423,4.423,0,0,1,1275.041,776.831Zm0-30.428a4.349,4.349,0,1,1,4.5-4.347A4.423,4.423,0,0,1,1275.041,746.4Zm0-30.428a4.349,4.349,0,1,1,4.5-4.347A4.423,4.423,0,0,1,1275.041,715.976Zm0-30.427a4.349,4.349,0,1,1,4.5-4.347A4.423,4.423,0,0,1,1275.041,685.549Zm0-30.427a4.349,4.349,0,1,1,4.5-4.347A4.423,4.423,0,0,1,1275.041,655.121Zm0-30.427a4.349,4.349,0,1,1,4.5-4.347A4.423,4.423,0,0,1,1275.041,624.694ZM1245.5,776.831a4.349,4.349,0,1,1,4.5-4.347A4.423,4.423,0,0,1,1245.5,776.831Zm0-30.428a4.349,4.349,0,1,1,4.5-4.347A4.423,4.423,0,0,1,1245.5,746.4Zm0-30.428a4.349,4.349,0,1,1,4.5-4.347A4.423,4.423,0,0,1,1245.5,715.976Zm0-30.427a4.349,4.349,0,1,1,4.5-4.347A4.423,4.423,0,0,1,1245.5,685.549Zm0-30.427a4.349,4.349,0,1,1,4.5-4.347A4.423,4.423,0,0,1,1245.5,655.121Zm0-30.427a4.349,4.349,0,1,1,4.5-4.347A4.423,4.423,0,0,1,1245.5,624.694ZM1394.5,960a4.349,4.349,0,1,1,4.5-4.347A4.423,4.423,0,0,1,1394.5,960Zm0-30.428a4.349,4.349,0,1,1,4.5-4.347A4.423,4.423,0,0,1,1394.5,929.573Zm0-30.428a4.349,4.349,0,1,1,4.5-4.347A4.423,4.423,0,0,1,1394.5,899.145Zm0-30.427a4.349,4.349,0,1,1,4.5-4.347A4.423,4.423,0,0,1,1394.5,868.717Zm0-30.427a4.349,4.349,0,1,1,4.5-4.347A4.423,4.423,0,0,1,1394.5,838.29Zm0-30.427a4.349,4.349,0,1,1,4.5-4.347A4.423,4.423,0,0,1,1394.5,807.863ZM1364.959,960a4.349,4.349,0,1,1,4.5-4.347A4.423,4.423,0,0,1,1364.959,960Zm0-30.428a4.349,4.349,0,1,1,4.5-4.347A4.423,4.423,0,0,1,1364.959,929.573Zm0-30.428a4.349,4.349,0,1,1,4.5-4.347A4.423,4.423,0,0,1,1364.959,899.145Zm0-30.427a4.349,4.349,0,1,1,4.5-4.347A4.423,4.423,0,0,1,1364.959,868.717Zm0-30.427a4.349,4.349,0,1,1,4.5-4.347A4.423,4.423,0,0,1,1364.959,838.29Zm0-30.427a4.349,4.349,0,1,1,4.5-4.347A4.423,4.423,0,0,1,1364.959,807.863ZM1335.415,960a4.349,4.349,0,1,1,4.5-4.347A4.423,4.423,0,0,1,1335.415,960Zm0-30.428a4.349,4.349,0,1,1,4.5-4.347A4.423,4.423,0,0,1,1335.415,929.573Zm0-30.428a4.349,4.349,0,1,1,4.5-4.347A4.423,4.423,0,0,1,1335.415,899.145Zm0-30.427a4.349,4.349,0,1,1,4.5-4.347A4.423,4.423,0,0,1,1335.415,868.717Zm0-30.427a4.349,4.349,0,1,1,4.5-4.347A4.423,4.423,0,0,1,1335.415,838.29Zm0-30.427a4.349,4.349,0,1,1,4.5-4.347A4.423,4.423,0,0,1,1335.415,807.863ZM1304.585,960a4.349,4.349,0,1,1,4.5-4.347A4.423,4.423,0,0,1,1304.585,960Zm0-30.428a4.349,4.349,0,1,1,4.5-4.347A4.423,4.423,0,0,1,1304.585,929.573Zm0-30.428a4.349,4.349,0,1,1,4.5-4.347A4.423,4.423,0,0,1,1304.585,899.145Zm0-30.427a4.349,4.349,0,1,1,4.5-4.347A4.423,4.423,0,0,1,1304.585,868.717Zm0-30.427a4.349,4.349,0,1,1,4.5-4.347A4.423,4.423,0,0,1,1304.585,838.29Zm0-30.427a4.349,4.349,0,1,1,4.5-4.347A4.423,4.423,0,0,1,1304.585,807.863ZM1275.041,960a4.349,4.349,0,1,1,4.5-4.347A4.423,4.423,0,0,1,1275.041,960Zm0-30.428a4.349,4.349,0,1,1,4.5-4.347A4.423,4.423,0,0,1,1275.041,929.573Zm0-30.428a4.349,4.349,0,1,1,4.5-4.347A4.423,4.423,0,0,1,1275.041,899.145Zm0-30.427a4.349,4.349,0,1,1,4.5-4.347A4.423,4.423,0,0,1,1275.041,868.717Zm0-30.427a4.349,4.349,0,1,1,4.5-4.347A4.423,4.423,0,0,1,1275.041,838.29Zm0-30.427a4.349,4.349,0,1,1,4.5-4.347A4.423,4.423,0,0,1,1275.041,807.863ZM1245.5,960a4.349,4.349,0,1,1,4.5-4.347A4.423,4.423,0,0,1,1245.5,960Zm0-30.428a4.349,4.349,0,1,1,4.5-4.347A4.423,4.423,0,0,1,1245.5,929.573Zm0-30.428a4.349,4.349,0,1,1,4.5-4.347A4.423,4.423,0,0,1,1245.5,899.145Zm0-30.427a4.349,4.349,0,1,1,4.5-4.347A4.423,4.423,0,0,1,1245.5,868.717Zm0-30.427a4.349,4.349,0,1,1,4.5-4.347A4.423,4.423,0,0,1,1245.5,838.29Zm0-30.427a4.349,4.349,0,1,1,4.5-4.347A4.423,4.423,0,0,1,1245.5,807.863Z" transform="translate(-1241 -616)"/></g></g></svg>