<svg xmlns="http://www.w3.org/2000/svg" width="96" height="216" viewBox="0 0 96 216"><defs><style>.a{fill:#ff8900;fill-rule:evenodd;}</style></defs><g transform="translate(-791 980)"><g transform="translate(791 -980)"><path class="a" d="M1334.268,716.987a2.729,2.729,0,1,1,2.732-2.729A2.73,2.73,0,0,1,1334.268,716.987Zm0-19.106a2.729,2.729,0,1,1,2.732-2.729A2.731,2.731,0,0,1,1334.268,697.881Zm0-19.106a2.729,2.729,0,1,1,2.732-2.729A2.731,2.731,0,0,1,1334.268,678.776Zm0-19.106a2.729,2.729,0,1,1,2.732-2.729A2.73,2.73,0,0,1,1334.268,659.67Zm0-19.106a2.729,2.729,0,1,1,2.732-2.729A2.731,2.731,0,0,1,1334.268,640.565Zm0-19.106a2.729,2.729,0,1,1,2.732-2.729A2.73,2.73,0,0,1,1334.268,621.459Zm-17.951,95.528a2.729,2.729,0,1,1,2.732-2.729A2.731,2.731,0,0,1,1316.317,716.987Zm0-19.106a2.729,2.729,0,1,1,2.732-2.729A2.731,2.731,0,0,1,1316.317,697.881Zm0-19.106a2.729,2.729,0,1,1,2.732-2.729A2.731,2.731,0,0,1,1316.317,678.776Zm0-19.106a2.729,2.729,0,1,1,2.732-2.729A2.731,2.731,0,0,1,1316.317,659.67Zm0-19.106a2.729,2.729,0,1,1,2.732-2.729A2.731,2.731,0,0,1,1316.317,640.565Zm0-19.106a2.729,2.729,0,1,1,2.732-2.729A2.731,2.731,0,0,1,1316.317,621.459Zm-17.951,95.528a2.729,2.729,0,1,1,2.732-2.729A2.731,2.731,0,0,1,1298.366,716.987Zm0-19.106a2.729,2.729,0,1,1,2.732-2.729A2.731,2.731,0,0,1,1298.366,697.881Zm0-19.106a2.729,2.729,0,1,1,2.732-2.729A2.731,2.731,0,0,1,1298.366,678.776Zm0-19.106a2.729,2.729,0,1,1,2.732-2.729A2.731,2.731,0,0,1,1298.366,659.67Zm0-19.106a2.729,2.729,0,1,1,2.732-2.729A2.731,2.731,0,0,1,1298.366,640.565Zm0-19.106a2.729,2.729,0,1,1,2.732-2.729A2.731,2.731,0,0,1,1298.366,621.459Zm-18.732,95.528a2.729,2.729,0,1,1,2.732-2.729A2.731,2.731,0,0,1,1279.634,716.987Zm0-19.106a2.729,2.729,0,1,1,2.732-2.729A2.731,2.731,0,0,1,1279.634,697.881Zm0-19.106a2.729,2.729,0,1,1,2.732-2.729A2.731,2.731,0,0,1,1279.634,678.776Zm0-19.106a2.729,2.729,0,1,1,2.732-2.729A2.731,2.731,0,0,1,1279.634,659.67Zm0-19.106a2.729,2.729,0,1,1,2.732-2.729A2.731,2.731,0,0,1,1279.634,640.565Zm0-19.106a2.729,2.729,0,1,1,2.732-2.729A2.731,2.731,0,0,1,1279.634,621.459Zm-17.951,95.528a2.729,2.729,0,1,1,2.732-2.729A2.73,2.73,0,0,1,1261.683,716.987Zm0-19.106a2.729,2.729,0,1,1,2.732-2.729A2.731,2.731,0,0,1,1261.683,697.881Zm0-19.106a2.729,2.729,0,1,1,2.732-2.729A2.731,2.731,0,0,1,1261.683,678.776Zm0-19.106a2.729,2.729,0,1,1,2.732-2.729A2.73,2.73,0,0,1,1261.683,659.67Zm0-19.106a2.729,2.729,0,1,1,2.732-2.729A2.731,2.731,0,0,1,1261.683,640.565Zm0-19.106a2.729,2.729,0,1,1,2.732-2.729A2.731,2.731,0,0,1,1261.683,621.459Zm-17.951,95.528a2.729,2.729,0,1,1,2.732-2.729A2.73,2.73,0,0,1,1243.732,716.987Zm0-19.106a2.729,2.729,0,1,1,2.732-2.729A2.731,2.731,0,0,1,1243.732,697.881Zm0-19.106a2.729,2.729,0,1,1,2.732-2.729A2.731,2.731,0,0,1,1243.732,678.776Zm0-19.106a2.729,2.729,0,1,1,2.732-2.729A2.73,2.73,0,0,1,1243.732,659.67Zm0-19.106a2.729,2.729,0,1,1,2.732-2.729A2.731,2.731,0,0,1,1243.732,640.565Zm0-19.106a2.729,2.729,0,1,1,2.732-2.729A2.731,2.731,0,0,1,1243.732,621.459ZM1334.268,832a2.729,2.729,0,1,1,2.732-2.729A2.73,2.73,0,0,1,1334.268,832Zm0-19.106a2.729,2.729,0,1,1,2.732-2.729A2.73,2.73,0,0,1,1334.268,812.894Zm0-19.106a2.729,2.729,0,1,1,2.732-2.729A2.731,2.731,0,0,1,1334.268,793.789Zm0-19.106a2.729,2.729,0,1,1,2.732-2.729A2.73,2.73,0,0,1,1334.268,774.683Zm0-19.106a2.729,2.729,0,1,1,2.732-2.729A2.73,2.73,0,0,1,1334.268,755.577Zm0-19.106a2.729,2.729,0,1,1,2.732-2.729A2.73,2.73,0,0,1,1334.268,736.472ZM1316.317,832a2.729,2.729,0,1,1,2.732-2.729A2.731,2.731,0,0,1,1316.317,832Zm0-19.106a2.729,2.729,0,1,1,2.732-2.729A2.731,2.731,0,0,1,1316.317,812.894Zm0-19.106a2.729,2.729,0,1,1,2.732-2.729A2.731,2.731,0,0,1,1316.317,793.789Zm0-19.106a2.729,2.729,0,1,1,2.732-2.729A2.731,2.731,0,0,1,1316.317,774.683Zm0-19.106a2.729,2.729,0,1,1,2.732-2.729A2.731,2.731,0,0,1,1316.317,755.577Zm0-19.106a2.729,2.729,0,1,1,2.732-2.729A2.731,2.731,0,0,1,1316.317,736.472ZM1298.366,832a2.729,2.729,0,1,1,2.732-2.729A2.731,2.731,0,0,1,1298.366,832Zm0-19.106a2.729,2.729,0,1,1,2.732-2.729A2.731,2.731,0,0,1,1298.366,812.894Zm0-19.106a2.729,2.729,0,1,1,2.732-2.729A2.731,2.731,0,0,1,1298.366,793.789Zm0-19.106a2.729,2.729,0,1,1,2.732-2.729A2.731,2.731,0,0,1,1298.366,774.683Zm0-19.106a2.729,2.729,0,1,1,2.732-2.729A2.731,2.731,0,0,1,1298.366,755.577Zm0-19.106a2.729,2.729,0,1,1,2.732-2.729A2.731,2.731,0,0,1,1298.366,736.472ZM1279.634,832a2.729,2.729,0,1,1,2.732-2.729A2.731,2.731,0,0,1,1279.634,832Zm0-19.106a2.729,2.729,0,1,1,2.732-2.729A2.731,2.731,0,0,1,1279.634,812.894Zm0-19.106a2.729,2.729,0,1,1,2.732-2.729A2.731,2.731,0,0,1,1279.634,793.789Zm0-19.106a2.729,2.729,0,1,1,2.732-2.729A2.731,2.731,0,0,1,1279.634,774.683Zm0-19.106a2.729,2.729,0,1,1,2.732-2.729A2.731,2.731,0,0,1,1279.634,755.577Zm0-19.106a2.729,2.729,0,1,1,2.732-2.729A2.731,2.731,0,0,1,1279.634,736.472ZM1261.683,832a2.729,2.729,0,1,1,2.732-2.729A2.73,2.73,0,0,1,1261.683,832Zm0-19.106a2.729,2.729,0,1,1,2.732-2.729A2.73,2.73,0,0,1,1261.683,812.894Zm0-19.106a2.729,2.729,0,1,1,2.732-2.729A2.731,2.731,0,0,1,1261.683,793.789Zm0-19.106a2.729,2.729,0,1,1,2.732-2.729A2.731,2.731,0,0,1,1261.683,774.683Zm0-19.106a2.729,2.729,0,1,1,2.732-2.729A2.73,2.73,0,0,1,1261.683,755.577Zm0-19.106a2.729,2.729,0,1,1,2.732-2.729A2.73,2.73,0,0,1,1261.683,736.472ZM1243.732,832a2.729,2.729,0,1,1,2.732-2.729A2.73,2.73,0,0,1,1243.732,832Zm0-19.106a2.729,2.729,0,1,1,2.732-2.729A2.73,2.73,0,0,1,1243.732,812.894Zm0-19.106a2.729,2.729,0,1,1,2.732-2.729A2.731,2.731,0,0,1,1243.732,793.789Zm0-19.106a2.729,2.729,0,1,1,2.732-2.729A2.731,2.731,0,0,1,1243.732,774.683Zm0-19.106a2.729,2.729,0,1,1,2.732-2.729A2.73,2.73,0,0,1,1243.732,755.577Zm0-19.106a2.729,2.729,0,1,1,2.732-2.729A2.73,2.73,0,0,1,1243.732,736.472Z" transform="translate(-1241 -616)"/></g></g></svg>